name Walk1.mot
datacolumns 19
datarows 17
range 4.41200000 4.42800000
endheader

                time	   L_ground_force_vx	   L_ground_force_vy	   L_ground_force_vz	   L_ground_force_px	   L_ground_force_py	   L_ground_force_pz	   R_ground_force_vx	   R_ground_force_vy	   R_ground_force_vz	   R_ground_force_px	   R_ground_force_py	   R_ground_force_pz	   L_ground_torque_x	   L_ground_torque_y	   L_ground_torque_z	   R_ground_torque_x	   R_ground_torque_y	   R_ground_torque_z	
          4.41200000	          0.00000000	          0.00000000	         -0.00000000	         -0.00000000	          0.00000000	         -0.00000000	         24.56751025	         80.29497402	          2.96014836	          0.30272393	          0.00000000	          0.07192961	          0.00000000	          0.00000000	          0.00000000	          0.00000000	         -5.25134928	          0.00000000	
          4.41300000	          0.00000000	          0.00000000	         -0.00000000	         -0.00000000	          0.00000000	         -0.00000000	         23.19608307	         74.81516466	          2.93513617	          0.29463114	          0.00000000	          0.06984987	          0.00000000	          0.00000000	          0.00000000	          0.00000000	         -4.97531989	          0.00000000	
          4.41400000	          0.00000000	          0.00000000	         -0.00000000	         -0.00000000	          0.00000000	         -0.00000000	         21.85663706	         69.52764039	          2.90183593	          0.28630572	          0.00000000	          0.06772392	          0.00000000	          0.00000000	          0.00000000	          0.00000000	         -4.70470339	          0.00000000	
          4.41500000	          0.00000000	          0.00000000	         -0.00000000	         -0.00000000	          0.00000000	         -0.00000000	         20.55069397	         64.43365273	          2.86090777	          0.27776193	          0.00000000	          0.06555574	          0.00000000	          0.00000000	          0.00000000	          0.00000000	         -4.43986741	          0.00000000	
          4.41600000	          0.00000000	          0.00000000	         -0.00000000	         -0.00000000	          0.00000000	         -0.00000000	         19.27967210	         59.53403702	          2.81301127	          0.26901644	          0.00000000	          0.06334978	          0.00000000	          0.00000000	          0.00000000	          0.00000000	         -4.18116022	          0.00000000	
          4.41700000	          0.00000000	          0.00000000	         -0.00000000	         -0.00000000	          0.00000000	         -0.00000000	         18.04487989	         54.82921707	          2.75880276	          0.26008854	          0.00000000	          0.06111101	          0.00000000	          0.00000000	          0.00000000	          0.00000000	         -3.92890948	          0.00000000	
          4.41800000	          0.00000000	          0.00000000	         -0.00000000	         -0.00000000	          0.00000000	         -0.00000000	         16.84750845	         50.31921029	          2.69893246	          0.25100028	          0.00000000	          0.05884492	          0.00000000	          0.00000000	          0.00000000	          0.00000000	         -3.68342083	          0.00000000	
          4.41900000	          0.00000000	          0.00000000	         -0.00000000	         -0.00000000	          0.00000000	         -0.00000000	         15.68862249	         46.00362973	          2.63404114	          0.24177674	          0.00000000	          0.05655758	          0.00000000	          0.00000000	          0.00000000	          0.00000000	         -3.44497603	          0.00000000	
          4.42000000	          0.00000000	          0.00000000	         -0.00000000	         -0.00000000	          0.00000000	         -0.00000000	         14.56914937	         41.88167943	          2.56475622	          0.23244623	          0.00000000	          0.05425567	          0.00000000	          0.00000000	          0.00000000	          0.00000000	         -3.21383056	          0.00000000	
          4.42100000	          0.00000000	          0.00000000	         -0.00000000	         -0.00000000	          0.00000000	         -0.00000000	         13.48986700	         37.95214109	          2.49168703	          0.22304053	          0.00000000	          0.05194650	          0.00000000	          0.00000000	          0.00000000	          0.00000000	         -2.99021041	          0.00000000	
          4.42200000	          0.00000000	          0.00000000	         -0.00000000	         -0.00000000	          0.00000000	         -0.00000000	         12.45139083	         34.21335120	          2.41541936	          0.21359466	          0.00000000	          0.04963798	          0.00000000	          0.00000000	          0.00000000	          0.00000000	         -2.77430848	          0.00000000	
          4.42300000	          0.00000000	          0.00000000	         -0.00000000	         -0.00000000	          0.00000000	         -0.00000000	         11.45416144	         30.66317177	          2.33650956	          0.20414521	          0.00000000	          0.04733826	          0.00000000	          0.00000000	          0.00000000	          0.00000000	         -2.56628055	          0.00000000	
          4.42400000	          0.00000000	          0.00000000	         -0.00000000	         -0.00000000	          0.00000000	         -0.00000000	         10.49843803	         27.29897439	          2.25547987	          0.19472778	          0.00000000	          0.04505518	          0.00000000	          0.00000000	          0.00000000	          0.00000000	         -2.36624264	          0.00000000	
          4.42500000	          0.00000000	          0.00000000	         -0.00000000	         -0.00000000	          0.00000000	         -0.00000000	          9.58430304	         24.11765861	          2.17281672	          0.18537523	          0.00000000	          0.04279598	          0.00000000	          0.00000000	          0.00000000	          0.00000000	         -2.17427131	          0.00000000	
          4.42600000	          0.00000000	          0.00000000	         -0.00000000	         -0.00000000	          0.00000000	         -0.00000000	          8.71167477	         21.11569652	          2.08897138	          0.17611738	          0.00000000	          0.04056714	          0.00000000	          0.00000000	          0.00000000	          0.00000000	         -1.99040611	          0.00000000	
          4.42700000	          0.00000000	          0.00000000	         -0.00000000	         -0.00000000	          0.00000000	         -0.00000000	          7.88032160	         18.28918245	          2.00436117	          0.16698116	          0.00000000	          0.03837451	          0.00000000	          0.00000000	          0.00000000	          0.00000000	         -1.81465262	          0.00000000	
          4.42800000	          0.00000000	          0.00000000	         -0.00000000	         -0.00000000	          0.00000000	         -0.00000000	          7.08987564	         15.63387981	          1.91937087	          0.15799077	          0.00000000	          0.03622330	          0.00000000	          0.00000000	          0.00000000	          0.00000000	         -1.64698527	          0.00000000	
